<mxfile host="app.diagrams.net" modified="2023-04-29T02:54:10.053Z" agent="Mozilla/5.0 (Windows NT 10.0; Win64; x64) AppleWebKit/537.36 (KHTML, like Gecko) Chrome/112.0.0.0 Safari/537.36" version="21.2.3" etag="gJuzGsV52Zli_VTdc-5H" type="github">
  <diagram name="第 1 页" id="2SYPmtGW7S65cHs98mN5">
    <mxGraphModel>
      <root>
        <mxCell id="0" />
        <mxCell id="1" parent="0" />
      </root>
    </mxGraphModel>
  </diagram>
</mxfile>
